<svg width="22" height="22" fill="none" xmlns="http://www.w3.org/2000/svg"><path fill="#85FF00" fill-opacity=".5" d="M0 0h22v22H0z"/><path d="M13 12.984V14H9.031v-.86l1.828-1.921c.162-.185.292-.35.391-.496.099-.149.17-.283.215-.403a.901.901 0 00.07-.324c0-.164-.025-.3-.074-.41a.524.524 0 00-.211-.254.627.627 0 00-.34-.086.566.566 0 00-.355.117.774.774 0 00-.239.32 1.21 1.21 0 00-.082.458h-1.32c0-.35.085-.668.254-.957a1.9 1.9 0 01.715-.692 2.093 2.093 0 011.058-.262c.42 0 .771.066 1.055.196.284.13.497.319.64.566.147.245.22.54.22.887 0 .198-.032.388-.094.57a2.45 2.45 0 01-.27.543c-.117.177-.26.36-.43.547-.166.188-.356.387-.57.598l-.734.847H13z" fill="#000"/></svg>