<svg width="28" height="28" fill="none" xmlns="http://www.w3.org/2000/svg"><path fill="#85FF00" fill-opacity=".5" d="M0 0h28v28H0z"/><path d="M13.23 13.605h.641a.83.83 0 00.402-.085.566.566 0 00.239-.25.89.89 0 00.078-.387.682.682 0 00-.074-.317.533.533 0 00-.22-.23.722.722 0 00-.378-.09.738.738 0 00-.305.066.636.636 0 00-.246.18.442.442 0 00-.094.285h-1.32c0-.323.089-.599.266-.828.18-.232.415-.409.707-.531a2.4 2.4 0 01.949-.188c.404 0 .758.063 1.063.188.304.122.541.305.71.547.172.24.258.536.258.89 0 .196-.045.38-.136.551a1.434 1.434 0 01-.383.453c-.164.13-.357.233-.578.309a2.27 2.27 0 01-.72.11h-.859v-.673zm0 .98v-.655h.86a2.9 2.9 0 01.777.097c.235.063.436.157.606.282.169.125.3.28.39.464.091.183.137.392.137.63 0 .265-.053.502-.16.71a1.505 1.505 0 01-.45.528 2.12 2.12 0 01-.675.328c-.258.073-.538.11-.84.11-.237 0-.474-.032-.71-.095a2.163 2.163 0 01-.65-.297 1.574 1.574 0 01-.472-.515 1.53 1.53 0 01-.176-.754h1.32c0 .12.033.23.098.328a.728.728 0 00.27.23.786.786 0 00.363.086.86.86 0 00.41-.09.656.656 0 00.352-.597.932.932 0 00-.098-.46.553.553 0 00-.277-.25 1.084 1.084 0 00-.434-.08h-.64z" fill="#000"/></svg>