<svg width="55" height="55" fill="none" xmlns="http://www.w3.org/2000/svg"><path fill="#85FF00" fill-opacity=".5" d="M0 0h55v55H0z"/><path d="M28.496 24.23h.211v1.036h-.07c-.253 0-.49.035-.711.105-.219.07-.412.177-.578.32-.164.141-.293.32-.387.536a1.95 1.95 0 00-.137.761v.996c0 .183.016.341.047.477a.946.946 0 00.14.336c.063.088.14.155.231.2a.75.75 0 00.324.066.578.578 0 00.282-.07.674.674 0 00.222-.2.93.93 0 00.149-.3c.034-.115.05-.24.05-.376 0-.146-.018-.277-.054-.394a.846.846 0 00-.156-.297.615.615 0 00-.239-.188.679.679 0 00-.3-.066.768.768 0 00-.426.113.732.732 0 00-.348.63l-.316-.321a1.214 1.214 0 01.09-.485 1.47 1.47 0 01.781-.813 1.63 1.63 0 01.68-.132c.26 0 .49.05.687.148.2.1.369.237.504.415.138.177.242.384.312.62.07.238.106.494.106.77 0 .279-.05.538-.149.777a1.858 1.858 0 01-1.039 1.036 2.095 2.095 0 01-.8.148c-.3 0-.577-.05-.832-.152a1.96 1.96 0 01-.665-.45 2.122 2.122 0 01-.44-.722 2.787 2.787 0 01-.157-.965v-.48c0-.487.08-.921.238-1.301.162-.38.38-.702.656-.965a2.86 2.86 0 01.957-.605c.36-.139.739-.207 1.137-.207z" fill="#000"/></svg>