<svg width="86" height="86" fill="none" xmlns="http://www.w3.org/2000/svg"><path fill="#85FF00" fill-opacity=".5" d="M0 0h86v86H0z"/><path d="M44.98 44.434c0 .362-.085.665-.257.91-.17.245-.404.428-.703.55a2.645 2.645 0 01-1.016.184c-.378 0-.718-.061-1.02-.184a1.588 1.588 0 01-.71-.55c-.175-.245-.262-.548-.262-.91 0-.248.05-.47.148-.664.102-.198.242-.366.422-.504s.39-.244.629-.317c.242-.073.504-.11.785-.11.38 0 .72.066 1.02.196.3.128.535.31.707.547.172.237.258.52.258.852zm-1.324-.106a.859.859 0 00-.082-.394.58.58 0 00-.23-.25.682.682 0 00-.348-.086.695.695 0 00-.348.086.605.605 0 00-.234.25.859.859 0 00-.082.394c0 .151.029.283.086.395a.632.632 0 00.234.254.703.703 0 00.352.086.66.66 0 00.344-.086.582.582 0 00.226-.254.89.89 0 00.082-.395zm1.207-2.496c0 .297-.08.557-.238.781a1.552 1.552 0 01-.656.52 2.38 2.38 0 01-.965.183c-.362 0-.685-.06-.969-.183a1.61 1.61 0 01-.664-.52 1.316 1.316 0 01-.238-.781c0-.349.08-.642.238-.879.162-.237.383-.417.664-.539.281-.122.602-.184.961-.184.365 0 .688.062.969.184s.501.302.66.54c.159.236.238.53.238.878zm-1.316.07a.874.874 0 00-.063-.347.485.485 0 00-.183-.227.531.531 0 00-.305-.082.536.536 0 00-.297.078.485.485 0 00-.183.227.885.885 0 00-.063.351c0 .136.021.254.063.356a.531.531 0 00.183.238.525.525 0 00.305.086.496.496 0 00.3-.086.507.507 0 00.18-.238.933.933 0 00.063-.356z" fill="#000"/></svg>