<svg width="22" height="22" viewBox="0 0 22 22" fill="none" xmlns="http://www.w3.org/2000/svg">
<rect width="22" height="22" fill="#85FF00" fill-opacity="0.5"/>
<path d="M13 12.9844V14H9.03125V13.1406L10.8594 11.2188C11.0208 11.0339 11.151 10.8685 11.25 10.7227C11.349 10.5742 11.4206 10.4401 11.4648 10.3203C11.5117 10.2005 11.5352 10.0924 11.5352 9.99609C11.5352 9.83203 11.5104 9.69531 11.4609 9.58594C11.4141 9.47396 11.3438 9.38932 11.25 9.33203C11.1589 9.27474 11.0456 9.24609 10.9102 9.24609C10.7747 9.24609 10.6562 9.28516 10.5547 9.36328C10.4531 9.44141 10.3737 9.54818 10.3164 9.68359C10.2617 9.81901 10.2344 9.97135 10.2344 10.1406H8.91406C8.91406 9.79167 8.9987 9.47266 9.16797 9.18359C9.33984 8.89453 9.57812 8.66406 9.88281 8.49219C10.1875 8.31771 10.5404 8.23047 10.9414 8.23047C11.3607 8.23047 11.7122 8.29557 11.9961 8.42578C12.2799 8.55599 12.4935 8.74479 12.6367 8.99219C12.7826 9.23698 12.8555 9.53255 12.8555 9.87891C12.8555 10.0768 12.8242 10.2669 12.7617 10.4492C12.6992 10.6315 12.6094 10.8125 12.4922 10.9922C12.375 11.1693 12.2318 11.3516 12.0625 11.5391C11.8958 11.7266 11.7057 11.9258 11.4922 12.1367L10.7578 12.9844H13Z" fill="black"/>
</svg>
