<svg width="28" height="28" viewBox="0 0 28 28" fill="none" xmlns="http://www.w3.org/2000/svg">
<rect width="28" height="28" fill="#85FF00" fill-opacity="0.5"/>
<path d="M13.2305 13.6055H13.8711C14.0352 13.6055 14.1693 13.5768 14.2734 13.5195C14.3802 13.4596 14.4596 13.3763 14.5117 13.2695C14.5638 13.1602 14.5898 13.0312 14.5898 12.8828C14.5898 12.7682 14.5651 12.6628 14.5156 12.5664C14.4688 12.4701 14.3958 12.3932 14.2969 12.3359C14.1979 12.276 14.0716 12.2461 13.918 12.2461C13.8138 12.2461 13.7122 12.2682 13.6133 12.3125C13.5143 12.3542 13.4323 12.4141 13.3672 12.4922C13.3047 12.5703 13.2734 12.6654 13.2734 12.7773H11.9531C11.9531 12.4544 12.0417 12.1784 12.2188 11.9492C12.3984 11.7174 12.6341 11.5404 12.9258 11.418C13.2201 11.293 13.5365 11.2305 13.875 11.2305C14.2786 11.2305 14.6328 11.293 14.9375 11.418C15.2422 11.5404 15.4792 11.7227 15.6484 11.9648C15.8203 12.2044 15.9062 12.5013 15.9062 12.8555C15.9062 13.0508 15.8607 13.2344 15.7695 13.4062C15.6784 13.5781 15.5508 13.7292 15.3867 13.8594C15.2227 13.9896 15.0299 14.0924 14.8086 14.168C14.5898 14.2409 14.3503 14.2773 14.0898 14.2773H13.2305V13.6055ZM13.2305 14.5859V13.9297H14.0898C14.3737 13.9297 14.6328 13.9622 14.8672 14.0273C15.1016 14.0898 15.3034 14.1836 15.4727 14.3086C15.6419 14.4336 15.7721 14.5885 15.8633 14.7734C15.9544 14.9557 16 15.1654 16 15.4023C16 15.668 15.9466 15.9049 15.8398 16.1133C15.7331 16.3216 15.5833 16.4974 15.3906 16.6406C15.1979 16.7839 14.9727 16.8932 14.7148 16.9688C14.457 17.0417 14.1771 17.0781 13.875 17.0781C13.638 17.0781 13.401 17.0469 13.1641 16.9844C12.9271 16.9193 12.7109 16.8203 12.5156 16.6875C12.3203 16.5521 12.1628 16.3802 12.043 16.1719C11.9258 15.9609 11.8672 15.7096 11.8672 15.418H13.1875C13.1875 15.5378 13.2201 15.6471 13.2852 15.7461C13.3529 15.8424 13.4427 15.9193 13.5547 15.9766C13.6667 16.0339 13.7878 16.0625 13.918 16.0625C14.0794 16.0625 14.2161 16.0326 14.3281 15.9727C14.4427 15.9102 14.5299 15.8268 14.5898 15.7227C14.6497 15.6185 14.6797 15.5026 14.6797 15.375C14.6797 15.1823 14.6471 15.0286 14.582 14.9141C14.5195 14.7995 14.4271 14.7161 14.3047 14.6641C14.1849 14.612 14.0404 14.5859 13.8711 14.5859H13.2305Z" fill="black"/>
</svg>
