<svg width="55" height="55" viewBox="0 0 55 55" fill="none" xmlns="http://www.w3.org/2000/svg">
<rect width="55" height="55" fill="#85FF00" fill-opacity="0.5"/>
<path d="M28.4961 24.2305H28.707V25.2656H28.6367C28.3841 25.2656 28.1471 25.3008 27.9258 25.3711C27.707 25.4414 27.5143 25.5482 27.3477 25.6914C27.1836 25.832 27.0547 26.0104 26.9609 26.2266C26.8698 26.4427 26.8242 26.6966 26.8242 26.9883V27.9844C26.8242 28.1667 26.8398 28.3255 26.8711 28.4609C26.9023 28.5964 26.9492 28.7083 27.0117 28.7969C27.0742 28.8854 27.151 28.9518 27.2422 28.9961C27.3359 29.0404 27.444 29.0625 27.5664 29.0625C27.668 29.0625 27.7617 29.0391 27.8477 28.9922C27.9336 28.9453 28.0078 28.8789 28.0703 28.793C28.1354 28.707 28.1849 28.6068 28.2188 28.4922C28.2526 28.3776 28.2695 28.2526 28.2695 28.1172C28.2695 27.9714 28.2513 27.8398 28.2148 27.7227C28.1784 27.6055 28.1263 27.5065 28.0586 27.4258C27.9935 27.3424 27.9141 27.2799 27.8203 27.2383C27.7292 27.194 27.6289 27.1719 27.5195 27.1719C27.3529 27.1719 27.2109 27.2096 27.0938 27.2852C26.9792 27.3581 26.8919 27.4518 26.832 27.5664C26.7747 27.681 26.7461 27.7969 26.7461 27.9141L26.4297 27.5938C26.4245 27.4375 26.4544 27.276 26.5195 27.1094C26.5846 26.9427 26.6823 26.7878 26.8125 26.6445C26.9427 26.5013 27.1055 26.3854 27.3008 26.2969C27.4961 26.2083 27.7227 26.1641 27.9805 26.1641C28.2409 26.1641 28.4701 26.2135 28.668 26.3125C28.8685 26.4115 29.0365 26.5495 29.1719 26.7266C29.3099 26.9036 29.4141 27.1107 29.4844 27.3477C29.5547 27.5846 29.5898 27.8411 29.5898 28.1172C29.5898 28.3958 29.5404 28.6549 29.4414 28.8945C29.3451 29.1315 29.2083 29.3385 29.0312 29.5156C28.8542 29.6927 28.6445 29.8307 28.4023 29.9297C28.1602 30.0286 27.8932 30.0781 27.6016 30.0781C27.3021 30.0781 27.0247 30.0273 26.7695 29.9258C26.5169 29.8216 26.2956 29.6719 26.1055 29.4766C25.918 29.2786 25.7708 29.0378 25.6641 28.7539C25.5599 28.4701 25.5078 28.1484 25.5078 27.7891V27.3086C25.5078 26.8216 25.5872 26.388 25.7461 26.0078C25.9076 25.6276 26.1263 25.306 26.4023 25.043C26.681 24.7773 27 24.5755 27.3594 24.4375C27.7188 24.2995 28.0977 24.2305 28.4961 24.2305Z" fill="black"/>
</svg>
