<svg width="86" height="86" viewBox="0 0 86 86" fill="none" xmlns="http://www.w3.org/2000/svg">
<rect width="86" height="86" fill="#85FF00" fill-opacity="0.5"/>
<path d="M44.9805 44.4336C44.9805 44.7956 44.8945 45.099 44.7227 45.3438C44.5534 45.5885 44.319 45.7721 44.0195 45.8945C43.7227 46.0169 43.3841 46.0781 43.0039 46.0781C42.6263 46.0781 42.2865 46.0169 41.9844 45.8945C41.6849 45.7721 41.4479 45.5885 41.2734 45.3438C41.099 45.099 41.0117 44.7956 41.0117 44.4336C41.0117 44.1862 41.0612 43.9648 41.1602 43.7695C41.2617 43.5716 41.4023 43.4036 41.582 43.2656C41.7617 43.1276 41.9714 43.0221 42.2109 42.9492C42.4531 42.8763 42.7148 42.8398 42.9961 42.8398C43.3763 42.8398 43.7161 42.9049 44.0156 43.0352C44.3151 43.1628 44.5508 43.3451 44.7227 43.582C44.8945 43.819 44.9805 44.1029 44.9805 44.4336ZM43.6562 44.3281C43.6562 44.1719 43.6289 44.0404 43.5742 43.9336C43.5195 43.8242 43.4427 43.7409 43.3438 43.6836C43.2448 43.6263 43.1289 43.5977 42.9961 43.5977C42.8659 43.5977 42.75 43.6263 42.6484 43.6836C42.5495 43.7409 42.4714 43.8242 42.4141 43.9336C42.3594 44.0404 42.332 44.1719 42.332 44.3281C42.332 44.4792 42.3607 44.6107 42.418 44.7227C42.4753 44.832 42.5534 44.9167 42.6523 44.9766C42.7539 45.0339 42.8711 45.0625 43.0039 45.0625C43.1367 45.0625 43.2513 45.0339 43.3477 44.9766C43.4466 44.9167 43.5221 44.832 43.5742 44.7227C43.6289 44.6107 43.6562 44.4792 43.6562 44.3281ZM44.8633 41.832C44.8633 42.1289 44.7839 42.3893 44.625 42.6133C44.4688 42.8346 44.25 43.0078 43.9688 43.1328C43.6901 43.2552 43.3685 43.3164 43.0039 43.3164C42.6419 43.3164 42.319 43.2552 42.0352 43.1328C41.7539 43.0078 41.5326 42.8346 41.3711 42.6133C41.2122 42.3893 41.1328 42.1289 41.1328 41.832C41.1328 41.4831 41.2122 41.1901 41.3711 40.9531C41.5326 40.7161 41.7539 40.5365 42.0352 40.4141C42.3164 40.2917 42.6367 40.2305 42.9961 40.2305C43.3607 40.2305 43.6836 40.2917 43.9648 40.4141C44.2461 40.5365 44.4661 40.7161 44.625 40.9531C44.7839 41.1901 44.8633 41.4831 44.8633 41.832ZM43.5469 41.9023C43.5469 41.7669 43.526 41.651 43.4844 41.5547C43.4427 41.4557 43.3815 41.3802 43.3008 41.3281C43.2201 41.2734 43.1185 41.2461 42.9961 41.2461C42.8789 41.2461 42.7799 41.2721 42.6992 41.3242C42.6185 41.3763 42.5573 41.4518 42.5156 41.5508C42.474 41.6471 42.4531 41.7643 42.4531 41.9023C42.4531 42.0378 42.474 42.1562 42.5156 42.2578C42.5573 42.3594 42.6185 42.4388 42.6992 42.4961C42.7826 42.5534 42.8841 42.582 43.0039 42.582C43.1263 42.582 43.2266 42.5534 43.3047 42.4961C43.3854 42.4388 43.4453 42.3594 43.4844 42.2578C43.526 42.1562 43.5469 42.0378 43.5469 41.9023Z" fill="black"/>
</svg>
